<svg width="28" height="32" viewBox="0 0 28 32" fill="none" xmlns="http://www.w3.org/2000/svg">
<path d="M16.5 8.66667V6.66667C16.5 3.8116 14.1884 1.5 11.3333 1.5C8.47823 1.5 6.16667 3.8116 6.16667 6.66667V8.66667H3.66667C2.69035 8.66667 1.83333 9.5237 1.83333 10.5V24C1.83333 24.9763 2.69035 25.8333 3.66667 25.8333H24.3333C25.3097 25.8333 26.1667 24.9763 26.1667 24V10.5C26.1667 9.5237 25.3097 8.66667 24.3333 8.66667H21.8333V6.66667C21.8333 3.8116 19.5218 1.5 16.6667 1.5C13.8116 1.5 11.5 3.8116 11.5 6.66667V8.66667H16.5ZM9.16667 10.5V24H18.8333V10.5H9.16667ZM16.5 19.3333C16.5 20.1655 15.8317 20.8333 15 20.8333C14.1683 20.8333 13.5 20.1655 13.5 19.3333V14C13.5 13.1678 14.1683 12.5 15 12.5C15.8317 12.5 16.5 13.1678 16.5 14V19.3333Z" fill="#00F6FF"/>
</svg>
