<?xml version="1.0" encoding="utf-8"?>
<!-- Generator: Adobe Illustrator 25.2.0, SVG Export Plug-In . SVG Version: 6.00 Build 0)  -->
<svg version="1.1" xmlns="http://www.w3.org/2000/svg" xmlns:xlink="http://www.w3.org/1999/xlink" x="0px" y="0px"
	 viewBox="0 0 3000 3000" style="enable-background:new 0 0 3000 3000;" xml:space="preserve">
<style type="text/css">
	.st0{display:none;}
	.st1{display:inline;fill:#0C0C0C;}
	.st2{display:none;fill:#FFFFFF;}
	.st3{fill:#FFFFFF;}
	.st4{fill:#EA1D24;}
</style>
<g id="Layer_2" class="st0">
	<rect x="3194.87" y="34.37" class="st1" width="2964.88" height="1127.75"/>
</g>
<g id="Layer_3">
	<rect x="0" y="0" class="st2" width="3000" height="3000"/>
	<g id="Layer_4">
	</g>
	<rect x="-82.17" y="-82.17" class="st3" width="3164.34" height="3164.34"/>
	<g>
		<path d="M2101.37,1381.21l110.09,0v388.12h-110.09V1381.21z"/>
		<g>
			<path d="M501.87,1894.47h-32.52v-20.1h90.43v20.1h-33.35v66.99h-24.56V1894.47z"/>
			<path d="M573.18,1874.37h90.43v20.1h-65.87v13.68h34.61v20.1h-34.61v13.12h65.87v20.1h-90.43V1874.37z"/>
			<path d="M678.62,1882.88c1.07-1.95,2.51-3.56,4.33-4.81c1.81-1.26,3.84-2.19,6.07-2.79c2.23-0.61,4.56-0.91,6.98-0.91h63.64
				c2.23,0,4.47,0.33,6.7,0.98c2.23,0.65,4.26,1.65,6.07,3c1.81,1.35,3.3,3,4.47,4.96c1.16,1.95,1.75,4.18,1.75,6.7v14.66h-24.7
				v-10.19h-52.33v46.89h52.33v-10.05h24.7v14.51c0,2.51-0.58,4.74-1.75,6.7c-1.16,1.95-2.65,3.61-4.47,4.95
				c-1.81,1.35-3.84,2.35-6.07,3c-2.23,0.65-4.47,0.98-6.7,0.98h-63.64c-2.42,0-4.74-0.3-6.98-0.91c-2.23-0.6-4.26-1.53-6.07-2.79
				c-1.81-1.26-3.26-2.86-4.33-4.81c-1.07-1.95-1.6-4.33-1.6-7.12V1890C677.01,1887.21,677.54,1884.84,678.62,1882.88z"/>
			<path d="M792,1961.45v-87.08h24.7v33.77h52.47v-33.77h24.7v87.08h-24.7v-33.22h-52.47v33.22H792z"/>
			<path d="M931.98,1908.56v52.89h-24.7v-87.08h26.79l50.24,53.31v-53.31h24.56v87.08h-26.24L931.98,1908.56z"/>
			<path d="M1023.87,1882.88c1.07-1.95,2.51-3.56,4.33-4.81c1.81-1.26,3.84-2.19,6.07-2.79c2.23-0.61,4.56-0.91,6.98-0.91h63.64
				c2.23,0,4.47,0.33,6.7,0.98c2.23,0.65,4.26,1.65,6.07,3c1.81,1.35,3.3,3,4.47,4.96c1.16,1.95,1.75,4.18,1.75,6.7v55.82
				c0,2.51-0.58,4.74-1.75,6.7c-1.16,1.95-2.65,3.61-4.47,4.95c-1.81,1.35-3.84,2.35-6.07,3c-2.23,0.65-4.47,0.98-6.7,0.98h-63.64
				c-2.42,0-4.74-0.3-6.98-0.91c-2.23-0.6-4.26-1.53-6.07-2.79c-1.81-1.26-3.26-2.86-4.33-4.81c-1.07-1.95-1.6-4.33-1.6-7.12V1890
				C1022.27,1887.21,1022.8,1884.84,1023.87,1882.88z M1099.16,1894.47h-52.33v46.89h52.33V1894.47z"/>
			<path d="M1137.26,1874.37h24.56v66.99h65.87v20.1h-90.43V1874.37z"/>
			<path d="M1242.69,1882.88c1.07-1.95,2.51-3.56,4.33-4.81c1.81-1.26,3.84-2.19,6.07-2.79c2.23-0.61,4.56-0.91,6.98-0.91h63.64
				c2.23,0,4.47,0.33,6.7,0.98c2.23,0.65,4.26,1.65,6.07,3c1.81,1.35,3.3,3,4.47,4.96c1.16,1.95,1.75,4.18,1.75,6.7v55.82
				c0,2.51-0.58,4.74-1.75,6.7c-1.16,1.95-2.65,3.61-4.47,4.95c-1.81,1.35-3.84,2.35-6.07,3c-2.23,0.65-4.47,0.98-6.7,0.98h-63.64
				c-2.42,0-4.74-0.3-6.98-0.91c-2.23-0.6-4.26-1.53-6.07-2.79c-1.81-1.26-3.26-2.86-4.33-4.81c-1.07-1.95-1.6-4.33-1.6-7.12V1890
				C1241.09,1887.21,1241.62,1884.84,1242.69,1882.88z M1317.98,1894.47h-52.33v46.89h52.33V1894.47z"/>
			<path d="M1402.83,1908.14h54.85v37.68c0,2.51-0.58,4.74-1.75,6.7c-1.16,1.95-2.65,3.61-4.47,4.95c-1.81,1.35-3.84,2.35-6.07,3
				c-2.23,0.65-4.47,0.98-6.7,0.98h-63.64c-2.42,0-4.74-0.3-6.98-0.91c-2.23-0.6-4.26-1.53-6.07-2.79
				c-1.81-1.26-3.26-2.86-4.33-4.81c-1.07-1.95-1.6-4.33-1.6-7.12V1890c0-2.79,0.53-5.16,1.6-7.12c1.07-1.95,2.51-3.56,4.33-4.81
				c1.81-1.26,3.84-2.19,6.07-2.79c2.23-0.61,4.56-0.91,6.98-0.91h82.62v20.1h-77.04v46.89h52.33v-13.12h-30.14V1908.14z"/>
			<path d="M1541.99,1885.11l-15.93,17.17l-26.24-27.91h-32.38l46.05,49.12v37.96h24.7v-37.96l21.85-23.27
				C1554.41,1895.51,1548.38,1890.46,1541.99,1885.11z"/>
			<path d="M1813.31,1927.12c-1.91-0.56-3.61-1.49-5.09-2.79c-1.49-1.3-2.68-2.98-3.56-5.03c-0.89-2.05-1.33-4.6-1.33-7.67v-24.98
				c0-1.3,0.39-2.67,1.19-4.12c0.79-1.44,1.79-2.77,3-3.98c1.21-1.21,2.53-2.21,3.98-3c1.44-0.79,2.81-1.19,4.11-1.19h89.18v20.1
				h-74.66l-2.23,1.12v10.75l1.96,1.53h59.17c1.95,0,3.88,0.28,5.79,0.84c1.9,0.56,3.6,1.49,5.09,2.79c1.49,1.3,2.67,2.98,3.56,5.02
				c0.88,2.05,1.33,4.6,1.33,7.68v24.98c0,1.3-0.4,2.68-1.19,4.12c-0.79,1.44-1.77,2.77-2.93,3.98c-1.17,1.21-2.47,2.21-3.91,3
				c-1.44,0.79-2.86,1.19-4.26,1.19h-89.18v-20.1h74.52l2.23-1.67v-10.19l-1.81-1.53h-59.17
				C1817.15,1927.96,1815.22,1927.68,1813.31,1927.12z"/>
			<path d="M1919.79,1882.88c1.07-1.95,2.51-3.56,4.33-4.81c1.81-1.26,3.84-2.19,6.07-2.79c2.23-0.61,4.56-0.91,6.98-0.91h63.64
				c2.23,0,4.47,0.33,6.7,0.98c2.23,0.65,4.26,1.65,6.07,3c1.82,1.35,3.3,3,4.47,4.96c1.16,1.95,1.74,4.18,1.74,6.7v55.82
				c0,2.51-0.58,4.74-1.74,6.7c-1.17,1.95-2.65,3.61-4.47,4.95c-1.81,1.35-3.84,2.35-6.07,3c-2.23,0.65-4.47,0.98-6.7,0.98h-63.64
				c-2.42,0-4.74-0.3-6.98-0.91c-2.23-0.6-4.26-1.53-6.07-2.79c-1.81-1.26-3.26-2.86-4.33-4.81c-1.07-1.95-1.6-4.33-1.6-7.12V1890
				C1918.19,1887.21,1918.72,1884.84,1919.79,1882.88z M1995.08,1894.47h-52.33v46.89h52.33V1894.47z"/>
			<path d="M2033.18,1874.37h24.56v66.99h65.87v20.1h-90.43V1874.37z"/>
			<path d="M2137.01,1874.37h24.56v66.99h52.33v-66.99h24.7v71.45c0,2.51-0.58,4.74-1.74,6.7c-1.17,1.95-2.65,3.61-4.47,4.95
				c-1.81,1.35-3.84,2.35-6.07,3c-2.23,0.65-4.47,0.98-6.7,0.98h-63.64c-2.42,0-4.74-0.3-6.98-0.91c-2.23-0.6-4.26-1.53-6.07-2.79
				c-1.81-1.26-3.26-2.86-4.33-4.81c-1.07-1.95-1.6-4.33-1.6-7.12V1874.37z"/>
			<path d="M2284.52,1894.47H2252v-20.1h90.43v20.1h-33.35v66.99h-24.56V1894.47z"/>
			<path d="M2355.83,1961.45v-20.1h18.98v-46.89h-18.98v-20.1h62.52v20.1h-18.98v46.89h18.98v20.1H2355.83z"/>
			<path d="M2433.35,1882.88c1.07-1.95,2.51-3.56,4.33-4.81c1.81-1.26,3.84-2.19,6.07-2.79c2.23-0.61,4.56-0.91,6.98-0.91h63.64
				c2.23,0,4.47,0.33,6.7,0.98c2.23,0.65,4.26,1.65,6.07,3c1.82,1.35,3.3,3,4.47,4.96c1.16,1.95,1.74,4.18,1.74,6.7v55.82
				c0,2.51-0.58,4.74-1.74,6.7c-1.17,1.95-2.65,3.61-4.47,4.95c-1.81,1.35-3.84,2.35-6.07,3c-2.23,0.65-4.47,0.98-6.7,0.98h-63.64
				c-2.42,0-4.74-0.3-6.98-0.91c-2.23-0.6-4.26-1.53-6.07-2.79c-1.81-1.26-3.26-2.86-4.33-4.81c-1.07-1.95-1.6-4.33-1.6-7.12V1890
				C2431.75,1887.21,2432.28,1884.84,2433.35,1882.88z M2508.64,1894.47h-52.33v46.89h52.33V1894.47z"/>
			<path d="M2571.44,1908.56v52.89h-24.7v-87.08h26.79l50.24,53.31v-53.31h24.56v87.08h-26.24L2571.44,1908.56z"/>
			<path d="M2671.71,1927.12c-1.91-0.56-3.61-1.49-5.09-2.79c-1.49-1.3-2.68-2.98-3.56-5.03c-0.89-2.05-1.33-4.6-1.33-7.67v-24.98
				c0-1.3,0.39-2.67,1.19-4.12c0.79-1.44,1.79-2.77,3-3.98c1.21-1.21,2.53-2.21,3.98-3c1.44-0.79,2.81-1.19,4.11-1.19h89.18v20.1
				h-74.66l-2.23,1.12v10.75l1.96,1.53h59.17c1.95,0,3.88,0.28,5.79,0.84c1.9,0.56,3.6,1.49,5.09,2.79c1.49,1.3,2.67,2.98,3.56,5.02
				c0.88,2.05,1.33,4.6,1.33,7.68v24.98c0,1.3-0.4,2.68-1.19,4.12c-0.79,1.44-1.77,2.77-2.93,3.98c-1.17,1.21-2.47,2.21-3.91,3
				c-1.44,0.79-2.86,1.19-4.26,1.19h-89.18v-20.1h74.52l2.23-1.67v-10.19l-1.81-1.53h-59.17
				C2675.55,1927.96,2673.62,1927.68,2671.71,1927.12z"/>
		</g>
		<g>
			<polygon points="2004.35,1678.55 2004.35,1381.21 1894.88,1381.21 1894.88,1562.8 			"/>
			<polygon points="1894.88,1618.46 1894.88,1618.8 1670.97,1381.21 1551.55,1381.21 1551.55,1769.32 1661.64,1769.32 
				1661.64,1533.59 1887.42,1769.32 2004.35,1769.32 2004.35,1734.19 			"/>
		</g>
		<g>
			<polygon points="2651.82,1381.21 2651.82,1618.8 2427.91,1381.21 2308.49,1381.21 2308.49,1416.87 2442.5,1558.57 
				2644.36,1769.32 2761.29,1769.32 2761.29,1381.21 			"/>
			<polygon points="2308.49,1472.53 2308.49,1769.32 2418.58,1769.32 2418.58,1588.92 			"/>
		</g>
		<path d="M1451.93,1717.73l-107.49-90.53v52.55h-35.68c33.88,28.55,67,56.42,98.31,82.76c118,99.27,210.4,176.75,221.35,185.17
			c52.2,40.17,142.18,38.45,142.18,38.45L1451.93,1717.73z"/>
		<path d="M1158.74,1470.78l-101.98-85.9l-171.28-144.25l13.46-16.2c5.24-6.35,4.37-15.76-1.98-21.03s-15.76-4.37-21.03,1.98
			l-13.22,15.96l-244.42-207.49l-42.15,48.06l246.46,207.81l-13.49,16.31c-5.27,6.35-4.4,15.76,1.95,21
			c6.35,5.27,15.76,4.4,21.03-1.95l13.34-16.11c19.84,16.75,80.92,68.31,160.82,135.74c32.39,27.32,67.87,57.24,104.95,88.52
			c63.68,53.68,132.04,111.3,197.55,166.5h35.68v-52.55L1158.74,1470.78z M624.98,1064.57l-20.89,7.4l5.88-20.71l19.72-8.07
			L624.98,1064.57z M658.31,1092.19l-20.89,7.4l5.88-20.68l19.72-8.1L658.31,1092.19z M691.63,1119.8l-20.89,7.4l5.91-20.68
			l19.69-8.1L691.63,1119.8z M724.98,1147.45l-20.89,7.37l5.88-20.68l19.69-8.07L724.98,1147.45z M758.31,1175.06l-20.89,7.4
			l5.88-20.71l19.72-8.07L758.31,1175.06z M791.63,1202.68l-20.89,7.4l5.91-20.71l19.69-8.07L791.63,1202.68z M824.98,1230.29
			l-20.91,7.4l5.91-20.68l19.69-8.1L824.98,1230.29z"/>
		<path class="st4" d="M1454.52,1450.85v248.79c0,6.44-0.84,12.47-2.59,18.09c-1.22,4.14-2.97,8.07-5.19,11.77
			c-5.18,8.71-11.8,16.08-19.9,22.08c-6.09,4.52-12.64,8.16-19.78,10.92c-2.36,0.93-4.78,1.75-7.28,2.48
			c-9.93,2.88-19.9,4.34-29.86,4.34H1086.3c-10.78,0-21.15-1.34-31.08-4.05c-9.96-2.68-18.96-6.85-27.06-12.44
			c-8.1-5.59-14.51-12.76-19.28-21.44c-4.78-8.71-7.17-19.28-7.17-31.75v-248.79c0-9.9,1.51-18.61,4.54-26.13
			c32.39,27.32,67.87,57.24,104.95,88.52v166.5h233.24v-208.97h-143.9l-107.31-89.57h276.7c9.96,0,19.92,1.46,29.86,4.34
			c9.96,2.91,18.96,7.37,27.06,13.4c8.1,6,14.71,13.37,19.9,22.08C1451.93,1429.71,1454.52,1439.67,1454.52,1450.85z"/>
		<path d="M802.07,1633.73c12.44,0,24.77-1.34,37.01-4.04c12.23-2.69,23.22-7.05,32.97-13.06c9.74-6.01,17.62-13.78,23.64-23.32
			c6.01-9.53,9.02-20.93,9.02-34.21v-123.15c0-5.8-1.77-11.91-5.29-18.35c-3.53-6.42-7.99-12.33-13.37-17.73
			c-5.39-5.38-11.3-9.85-17.73-13.37c-6.43-3.52-12.55-5.29-44.61-5.29H388.05l81.65,89.56h314.96c4.56,0.42,7.87,2.91,9.95,7.46
			v57.22c-0.83,1.24-1.87,2.49-3.11,3.73c-1.24,1.24-3.53,2.49-6.84,3.73H511.71v-0.08h-85.07l-19.28-27.68
			c1.19-2.83,1.86-5.95,1.86-9.21c0-13.12-10.68-23.8-23.8-23.8c-13.12,0-23.8,10.68-23.8,23.8c0,13.12,10.68,23.8,23.8,23.8
			c4.06,0,7.87-1.02,11.22-2.82l21.89,31.44h48.29v36.98h-88.58l-20.47-25.13c0.89-2.49,1.4-5.17,1.4-7.97
			c0-13.12-10.68-23.8-23.8-23.8c-13.12,0-23.8,10.68-23.8,23.8s10.68,23.8,23.8,23.8c4.55,0,8.78-1.3,12.4-3.53l23.08,28.35h95.95
			v36.34H283.08c-3.23-9.32-12.07-16.04-22.47-16.04c-13.12,0-23.8,10.68-23.8,23.8c0,13.12,10.68,23.8,23.8,23.8
			c10.4,0,19.24-6.72,22.47-16.04h183.75v36.34H346.35l-23.08,28.35c-3.62-2.22-7.85-3.53-12.4-3.53c-13.12,0-23.8,10.68-23.8,23.8
			c0,13.12,10.68,23.8,23.8,23.8c13.12,0,23.8-10.68,23.8-23.8c0-2.8-0.51-5.47-1.4-7.96l20.47-25.14h113.1v36.98h-72.81
			l-21.89,31.44c-3.35-1.8-7.16-2.82-11.22-2.82c-13.12,0-23.8,10.68-23.8,23.8c0,13.12,10.68,23.8,23.8,23.8s23.8-10.68,23.8-23.8
			c0-3.26-0.66-6.38-1.86-9.21l19.28-27.68h64.71v2.23h110.09v-135.59h69.04l151.76,135.59h153.01L802.07,1633.73z M377.15,1505.95
			c0-4.56,3.71-8.28,8.28-8.28s8.28,3.71,8.28,8.28s-3.71,8.28-8.28,8.28S377.15,1510.51,377.15,1505.95z M327.11,1562.24
			c0-4.56,3.71-8.28,8.28-8.28s8.28,3.71,8.28,8.28s-3.71,8.28-8.28,8.28S327.11,1566.81,327.11,1562.24z M260.61,1663.24
			c-4.56,0-8.28-3.71-8.28-8.28s3.71-8.28,8.28-8.28c4.56,0,8.28,3.71,8.28,8.28S265.17,1663.24,260.61,1663.24z M310.87,1755.97
			c-4.56,0-8.28-3.71-8.28-8.28s3.71-8.27,8.28-8.27s8.28,3.71,8.28,8.27S315.43,1755.97,310.87,1755.97z M360.9,1812.26
			c-4.56,0-8.28-3.71-8.28-8.27s3.71-8.28,8.28-8.28s8.28,3.71,8.28,8.28S365.46,1812.26,360.9,1812.26z"/>
	</g>
</g>
</svg>
